<svg width="320" height="320" viewBox="0 0 320 320" fill="none" xmlns="http://www.w3.org/2000/svg">
<g clip-path="url(#clip0_1_2)">
<path d="M160 0C154.844 0 149.766 1.95312 145.859 5.85938L111.719 40H60C48.9844 40 40 48.9844 40 60V111.719L5.85938 145.859C-1.95313 153.672 -1.95313 166.328 5.85938 174.141L40 208.281V260C40 271.016 48.9844 280 60 280H111.719L145.859 314.141C153.672 321.953 166.328 321.953 174.141 314.141L208.281 280H260C271.016 280 280 271.016 280 260V208.281L314.141 174.141C321.953 166.328 321.953 153.672 314.141 145.859L280 111.719V60C280 48.9844 271.016 40 260 40H208.281L174.141 5.85938C170.234 1.95312 165.156 0 160 0ZM160 100C165.156 100 170.234 101.953 174.141 105.859L214.141 145.859C217.813 149.609 219.922 154.688 219.844 160H220V180H180V220H140V180H100V160H100.156C100.078 154.688 102.188 149.609 105.859 145.859L145.859 105.859C149.766 101.953 154.844 100 160 100Z" fill="url(#paint0_linear_1_2)"/>
</g>
<defs>
<linearGradient id="paint0_linear_1_2" x1="270.5" y1="44.5" x2="48.5" y2="276.5" gradientUnits="userSpaceOnUse">
<stop stop-color="#B6D76A"/>
<stop offset="0.0001" stop-color="#6DBBD3"/>
<stop offset="1" stop-color="#2693A2"/>
</linearGradient>
<clipPath id="clip0_1_2">
<rect width="320" height="320" fill="white"/>
</clipPath>
</defs>
</svg>
